<?xml version="1.0" encoding="utf-8"?>
<!-- Generator: Adobe Illustrator 24.0.1, SVG Export Plug-In . SVG Version: 6.00 Build 0)  -->
<svg version="1.1" id="Capa_2" xmlns="http://www.w3.org/2000/svg" xmlns:xlink="http://www.w3.org/1999/xlink" x="0px" y="0px"
	 viewBox="0 0 260 260" style="enable-background:new 0 0 260 260;" xml:space="preserve">
<style type="text/css">
	.st0{fill:#3D3F4C;}
	.st1{fill:#26B7A0;}
</style>
<path class="st0" d="M221.65,101.42c-2.89-3.08-7.04-4.11-10.97-5.13c-8.61-2.24-17.23-4.47-25.84-6.71
	c-5.3-1.38-12.04,3.87-9.71,9.71c5.52,13.82,3.94,30.49-6.26,42c-2.14,2.42-4.57,4.55-7.18,6.39c-1.54-7.98-4.62-15.48-9.81-21.36
	c-7.74-8.76-20.73-8.6-28.79-0.37c-7.47,7.63-9.08,20.22-7.92,30.44c1.47,12.93,14.83,15.03,25.64,14.44
	c1.97-0.11,3.93-0.34,5.88-0.64c-0.4,3.08-0.99,6.11-1.77,9.01c-3.51,13.11-10.54,24.74-20.89,33.9
	c-4.03,3.57-10.78,7.87-15.57,9.82c-3.53,1.44-7.46,2.89-11.29,3.01c-1.4,0.04-2.68-0.01-4.04-0.37c-0.03-0.01-1.37-0.47-1.5-0.47
	c-0.78-0.37-1.54-0.81-2.26-1.28c-1.31-0.85-3.35-3.22-4.49-5.13c-1.82-3.05-2.35-4.49-3.36-8.14c-2.03-7.33-2.06-14.2-1.58-22.5
	c1.11-19.11,6.12-37.78,12.32-55.81c2.09-6.07,4.3-12.12,6.58-18.16c5.62-1.7,11.12-3.84,16.43-6.53
	c19.56-9.88,35.18-28.55,39.24-50.38c2.29-12.32,0.93-24.63-4.84-35.82c-1.84-3.57-7.44-5.19-10.8-2.83
	c-16.56,11.63-27.78,28.4-36.37,46.46c-5.57,11.71-10.66,23.77-15.41,35.93c-2.52,0.58-5.05,1.08-7.58,1.48
	c-11.88,1.92-24.09,1.89-36.08,1.28c-4.26-0.22-7.9,3.78-7.9,7.9c0,4.46,3.62,7.68,7.9,7.9c12.33,0.63,24.91,0.43,37.19-1.36
	c-0.92,2.54-1.87,5.09-2.77,7.63c-7.65,21.8-13.42,44.56-13.9,67.77c-0.34,16.21,3.74,37.8,20.16,45.44
	c17.9,8.34,39.66-3.84,52.72-16.12c12.43-11.69,21.27-27.75,24.53-44.5c0.8-4.11,1.35-8.53,1.55-13.06
	c2.19-1.05,4.31-2.23,6.34-3.57c17.03-11.22,26.82-31.55,24.63-51.93c-0.06-0.53-0.14-1.05-0.21-1.58c2.86,0.74,5.72,1.48,8.58,2.23
	c1.85,0.48,3.69,0.96,5.54,1.44c0.34,0.09,0.69,0.19,1.03,0.29c-0.03,0.14-0.06,0.26-0.07,0.32c-0.5,1.91-1,3.82-1.51,5.72
	c-3.96,15.05-7.92,30.1-11.87,45.15c-2.59,9.84,12.64,14.03,15.23,4.2c4.61-17.53,9.75-35.02,13.84-52.67
	C225.47,110.04,225.18,105.19,221.65,101.42z M114.97,75.3c6.13-13.23,13.54-26.53,24.14-36.71c0.89,4.56,1,9.28,0.28,13.49
	c-1.53,9-4.86,16.43-10.2,23.85c-5.71,7.94-13.58,13.85-22.45,18.16C109.39,87.77,112.1,81.49,114.97,75.3z M130.75,154.31
	c-0.03-2.08,0.02-4.17,0.13-6.24c0.18-3.44,0.74-7.81,2.71-10.25c1-1.23,2.04-2.35,4.54-2.35s4.24,4.51,5.04,6.23
	c1.8,3.89,2.9,8.14,3.5,12.51c-1.97,0.44-3.91,0.73-5.89,0.84C137.11,155.24,133.97,154.55,130.75,154.31z M210.36,112.51
	C211.51,112.77,210.6,112.74,210.36,112.51L210.36,112.51z"/>
<g>
	<path class="st1" d="M195.2,202.77c10.16,0,10.18-15.79,0-15.79C185.04,186.98,185.03,202.77,195.2,202.77L195.2,202.77z"/>
</g>
</svg>
